<?xml version="1.0" encoding="UTF-8"?>
<svg width="489px" height="72px" viewBox="0 0 489 72" version="1.1" xmlns="http://www.w3.org/2000/svg" xmlns:xlink="http://www.w3.org/1999/xlink">
    <!-- Generator: Sketch 47.1 (45422) - http://www.bohemiancoding.com/sketch -->
    <title>tr_h_lg_rgb_wh</title>
    <desc>Created with Sketch.</desc>
    <defs></defs>
    <g id="Page-1" stroke="none" stroke-width="1" fill="none" fill-rule="evenodd">
        <path d="M484.15,26.946 C484.15,27.479 483.813,27.789 483.237,27.789 L482.394,27.789 L482.394,26.154 L483.26,26.154 C483.813,26.154 484.15,26.417 484.15,26.946 Z M485.161,26.875 C485.161,25.911 484.44,25.335 483.335,25.335 L481.383,25.335 L481.383,30.583 L482.394,30.583 L482.394,28.561 L483.021,28.561 L484.511,30.583 L485.718,30.583 L484.079,28.439 C484.777,28.2 485.161,27.62 485.161,26.875 Z M478.569,28.102 C478.569,25.574 480.348,23.556 483.092,23.556 C485.859,23.556 487.638,25.574 487.638,28.102 C487.638,30.63 485.859,32.676 483.092,32.676 C480.348,32.676 478.569,30.63 478.569,28.102 Z M477.797,28.102 C477.797,30.944 479.894,33.35 483.092,33.35 C486.29,33.35 488.41,30.944 488.41,28.102 C488.41,25.237 486.29,22.882 483.092,22.882 C479.894,22.882 477.797,25.237 477.797,28.102 Z M410.969,37.637 L422.55,37.637 C422.952,37.637 423.267,37.312 423.267,36.918 L423.267,34.304 C423.267,33.912 422.952,33.584 422.55,33.584 L410.969,33.584 L410.969,30.266 C410.969,27.239 411.082,27.157 413.824,27.157 L422.989,27.157 C423.377,27.157 423.708,26.826 423.708,26.43 L423.708,24.118 C423.708,23.61 423.526,23.426 422.989,23.356 C421.825,23.179 419.471,22.852 415.168,22.852 C409.152,22.852 405.972,22.81 405.972,30.266 L405.972,41.715 C405.972,49.171 409.152,49.13 415.168,49.13 C419.471,49.13 421.825,48.807 422.989,48.624 C423.526,48.554 423.708,48.372 423.708,47.862 L423.708,45.551 C423.708,45.154 423.377,44.829 422.989,44.829 L413.824,44.829 C411.082,44.829 410.969,44.747 410.969,41.715 L410.969,37.637 Z M473.998,41.584 C473.998,38.113 472.021,36.318 468.974,35.084 C466.567,34.117 464.461,33.296 462.854,32.663 C461.247,32.025 459.889,30.931 459.889,29.74 C459.889,28.113 461.894,27.171 464.576,27.171 C467.722,27.171 470.199,27.611 472.589,27.829 C472.625,27.829 472.658,27.829 472.658,27.829 C473.026,27.829 473.273,27.535 473.273,27.177 L473.273,24.499 C473.273,24.139 472.987,23.884 472.625,23.814 C471.394,23.52 468.237,22.863 464.788,22.863 C458.059,22.863 454.855,25.757 454.855,29.74 C454.855,32.269 455.97,34.764 459.117,36.065 C462.28,37.369 468.758,38.871 468.758,41.584 C468.758,43.682 467.773,44.836 464.555,44.836 C461.21,44.836 457.823,44.362 456.375,44.181 C456.34,44.181 456.34,44.181 456.303,44.181 C455.944,44.181 455.615,44.474 455.615,44.87 L455.615,47.476 C455.615,47.875 455.944,48.125 456.303,48.196 C458.039,48.597 461.282,49.148 464.48,49.148 C471.719,49.148 473.998,45.236 473.998,41.584 Z M445.242,31.028 C445.242,28.315 443.136,27.157 439.513,27.157 C438.756,27.157 435.464,27.229 434.812,27.302 L434.812,35.147 C435.397,35.183 438.907,35.257 439.513,35.257 C443.246,35.257 445.242,34.539 445.242,31.356 L445.242,31.028 Z M451.106,48.411 C451.106,48.66 450.957,48.843 450.673,48.843 L446.254,48.843 C445.854,48.843 445.713,48.476 445.535,48.119 L440.318,39.345 L439.513,39.345 C438.576,39.345 435.648,39.242 434.812,39.199 L434.812,48.119 C434.812,48.515 434.525,48.843 434.13,48.843 L430.514,48.843 C430.116,48.843 429.789,48.515 429.789,48.119 L429.789,24.403 C429.789,23.679 430.22,23.426 430.945,23.32 C432.824,23.032 436.875,22.852 439.513,22.852 C445.09,22.852 450.232,24.843 450.232,31.028 L450.232,31.356 C450.232,35.186 448.311,37.284 445.347,38.436 L451.033,48.119 C451.106,48.228 451.106,48.331 451.106,48.411 Z M402.25,26.686 L402.25,23.827 C402.25,23.426 401.925,23.14 401.531,23.14 L382.052,23.14 C381.66,23.14 381.333,23.426 381.333,23.827 L381.333,26.686 C381.333,27.084 381.66,27.334 382.052,27.334 L389.276,27.334 L389.276,48.119 C389.276,48.515 389.603,48.843 390.001,48.843 L393.583,48.843 C393.981,48.843 394.314,48.515 394.314,48.119 L394.314,27.334 L401.531,27.334 C401.925,27.334 402.25,27.084 402.25,26.686 Z M377.739,38.887 L377.739,23.827 C377.739,23.426 377.414,23.14 377.012,23.14 L373.43,23.14 C373.032,23.14 372.709,23.426 372.709,23.827 L372.709,38.887 C372.709,43.014 370.804,44.97 366.894,44.97 C362.993,44.97 361.084,43.014 361.084,38.887 L361.084,23.827 C361.084,23.426 360.761,23.14 360.359,23.14 L356.785,23.14 C356.387,23.14 356.058,23.426 356.058,23.827 L356.058,38.887 C356.058,46.597 361.073,49.13 366.894,49.13 C372.722,49.13 377.739,46.597 377.739,38.887 Z M337.908,37.637 L349.489,37.637 C349.887,37.637 350.214,37.312 350.214,36.918 L350.214,34.304 C350.214,33.912 349.887,33.584 349.489,33.584 L337.908,33.584 L337.908,30.266 C337.908,27.239 338.023,27.157 340.761,27.157 L349.922,27.157 C350.32,27.157 350.647,26.826 350.647,26.43 L350.647,24.118 C350.647,23.61 350.465,23.426 349.922,23.356 C348.764,23.179 346.407,22.852 342.103,22.852 C336.097,22.852 332.911,22.81 332.911,30.266 L332.911,41.715 C332.911,49.171 336.097,49.13 342.103,49.13 C346.407,49.13 348.764,48.807 349.922,48.624 C350.465,48.554 350.647,48.372 350.647,47.862 L350.647,45.551 C350.647,45.154 350.32,44.829 349.922,44.829 L340.761,44.829 C338.023,44.829 337.908,44.747 337.908,41.715 L337.908,37.637 Z M322.397,31.028 C322.397,28.315 320.293,27.157 316.673,27.157 C315.911,27.157 312.619,27.229 311.972,27.302 L311.972,35.147 C312.546,35.183 316.052,35.257 316.673,35.257 C320.396,35.257 322.397,34.539 322.397,31.356 L322.397,31.028 Z M328.26,48.411 C328.26,48.66 328.115,48.843 327.827,48.843 L323.408,48.843 C323.013,48.843 322.866,48.476 322.687,48.119 L317.475,39.345 L316.673,39.345 C315.728,39.345 312.805,39.242 311.972,39.199 L311.972,48.119 C311.972,48.515 311.68,48.843 311.282,48.843 L307.663,48.843 C307.269,48.843 306.942,48.515 306.942,48.119 L306.942,24.403 C306.942,23.679 307.371,23.426 308.1,23.32 C309.983,23.032 314.028,22.852 316.673,22.852 C322.244,22.852 327.39,24.843 327.39,31.028 L327.39,31.356 C327.39,35.186 325.474,37.284 322.509,38.436 L328.186,48.119 C328.26,48.228 328.26,48.331 328.26,48.411 Z M257.522,34.14 C257.522,29.365 254.635,27.229 251.088,27.229 C247.541,27.229 244.655,29.365 244.655,34.14 L244.655,37.842 C244.655,42.618 247.541,44.75 251.088,44.75 C254.635,44.75 257.522,42.618 257.522,37.842 L257.522,34.14 Z M262.583,34.14 L262.583,37.842 C262.583,45.803 257.057,49.13 251.088,49.13 C245.119,49.13 239.593,45.803 239.593,37.842 L239.593,34.14 C239.593,26.181 245.119,22.852 251.088,22.852 C257.057,22.852 262.583,26.181 262.583,34.14 Z M235.033,41.584 C235.033,38.113 233.06,36.318 230.002,35.084 C227.598,34.117 225.486,33.296 223.879,32.663 C222.278,32.028 220.916,30.931 220.916,29.74 C220.916,28.113 222.93,27.171 225.601,27.171 C228.752,27.171 231.229,27.611 233.62,27.829 C233.655,27.829 233.655,27.829 233.692,27.829 C234.053,27.829 234.304,27.535 234.304,27.177 L234.304,24.499 C234.304,24.139 234.02,23.884 233.655,23.814 C232.428,23.52 229.272,22.863 225.821,22.863 C219.093,22.863 215.885,25.757 215.885,29.74 C215.885,32.269 217,34.764 220.153,36.065 C223.314,37.369 229.783,38.871 229.783,41.584 C229.783,43.682 228.807,44.836 225.583,44.836 C222.238,44.836 218.852,44.362 217.404,44.181 C217.363,44.181 217.363,44.181 217.332,44.181 C216.971,44.181 216.646,44.474 216.646,44.87 L216.646,47.476 C216.646,47.875 216.971,48.125 217.332,48.196 C219.072,48.597 222.317,49.148 225.511,49.148 C232.754,49.148 235.033,45.236 235.033,41.584 Z M290.302,47.395 L290.302,23.827 C290.302,23.426 290.01,23.14 289.613,23.14 L286.499,23.14 C286.097,23.14 285.809,23.426 285.809,23.827 L285.809,41.677 C285.809,41.891 285.705,42.005 285.633,42.005 C285.519,42.005 285.413,41.891 285.345,41.715 L275.137,24.302 C274.698,23.356 274.302,23.14 273.543,23.14 L269.632,23.14 C268.836,23.14 268.192,23.788 268.192,24.585 L268.192,48.119 C268.192,48.515 268.509,48.843 268.915,48.843 L271.984,48.843 C272.381,48.843 272.673,48.515 272.673,48.119 L272.673,31.101 C272.673,30.886 272.752,30.808 272.856,30.808 C272.963,30.808 273.075,30.886 273.179,31.101 L282.997,47.543 C283.563,48.843 284.328,48.843 285.195,48.843 L288.856,48.843 C289.65,48.843 290.302,48.193 290.302,47.395 Z M209.991,48.3 L209.991,24.585 C209.991,23.788 209.338,23.14 208.543,23.14 L205.574,23.14 C204.998,23.14 204.488,23.498 204.235,24.008 L197.296,38.142 C197.11,38.468 197.038,38.648 196.896,38.648 C196.746,38.648 196.671,38.468 196.493,38.142 L189.55,24.008 C189.295,23.498 188.787,23.14 188.213,23.14 L185.244,23.14 C184.447,23.14 183.794,23.788 183.794,24.585 L183.794,48.3 C183.794,48.66 184.086,48.843 184.416,48.843 L188.066,48.843 C188.392,48.843 188.646,48.476 188.646,48.119 L188.646,32.473 C188.646,32.22 188.684,32.115 188.756,32.115 C188.787,32.115 188.862,32.22 188.938,32.329 L194.819,45.267 C195.029,45.661 195.501,45.883 195.971,45.883 L197.855,45.883 C198.325,45.883 198.793,45.661 199.005,45.267 L204.847,32.329 C204.925,32.22 204.998,32.115 205.025,32.115 C205.103,32.115 205.141,32.22 205.141,32.473 L205.141,48.119 C205.141,48.476 205.393,48.843 205.715,48.843 L209.371,48.843 C209.699,48.843 209.991,48.66 209.991,48.3 Z M173.124,34.14 C173.124,29.365 170.24,27.229 166.693,27.229 C163.148,27.229 160.259,29.365 160.259,34.14 L160.259,37.842 C160.259,42.618 163.148,44.75 166.693,44.75 C170.24,44.75 173.124,42.618 173.124,37.842 L173.124,34.14 Z M178.196,34.14 L178.196,37.842 C178.196,45.803 172.666,49.13 166.693,49.13 C160.724,49.13 155.198,45.803 155.198,37.842 L155.198,34.14 C155.198,26.181 160.724,22.852 166.693,22.852 C172.666,22.852 178.196,26.181 178.196,34.14 Z M149.483,48.119 L149.483,23.827 C149.483,23.426 149.154,23.14 148.76,23.14 L145.184,23.14 C144.778,23.14 144.453,23.426 144.453,23.827 L144.453,33.224 L132.991,33.224 L132.991,23.827 C132.991,23.426 132.664,23.14 132.272,23.14 L128.689,23.14 C128.288,23.14 127.964,23.426 127.964,23.827 L127.964,48.119 C127.964,48.515 128.288,48.843 128.689,48.843 L132.272,48.843 C132.664,48.843 132.991,48.515 132.991,48.119 L132.991,37.637 L144.453,37.637 L144.453,48.119 C144.453,48.515 144.778,48.843 145.184,48.843 L148.76,48.843 C149.154,48.843 149.483,48.515 149.483,48.119 Z M122.653,27.334 L115.436,27.334 L115.436,48.119 C115.436,48.515 115.108,48.843 114.707,48.843 L111.129,48.843 C110.731,48.843 110.408,48.515 110.408,48.119 L110.408,27.334 L103.181,27.334 C102.785,27.334 102.456,27.084 102.456,26.686 L102.456,23.827 C102.456,23.426 102.785,23.14 103.181,23.14 L122.653,23.14 C123.05,23.14 123.378,23.426 123.378,23.827 L123.378,26.686 C123.378,27.084 123.05,27.334 122.653,27.334 Z M28.57,39.486 C29.144,39.36 29.508,38.785 29.41,38.203 C29.282,37.605 28.703,37.197 28.12,37.348 C27.504,37.451 27.146,38.034 27.265,38.593 C27.387,39.208 27.963,39.627 28.57,39.486 Z M50.767,34.852 C51.341,34.721 51.703,34.152 51.607,33.569 C51.475,32.961 50.892,32.553 50.315,32.707 C49.702,32.804 49.347,33.395 49.46,33.962 C49.576,34.564 50.16,34.979 50.767,34.852 Z M31.234,44.396 C31.914,43.84 31.996,42.904 31.509,42.245 C30.959,41.61 30.013,41.493 29.355,41.992 C28.717,42.478 28.597,43.444 29.123,44.105 C29.619,44.76 30.581,44.923 31.234,44.396 Z M49.378,30.152 C50.06,29.596 50.138,28.656 49.65,28.001 C49.105,27.37 48.155,27.253 47.505,27.752 C46.87,28.245 46.739,29.21 47.273,29.865 C47.769,30.52 48.729,30.682 49.378,30.152 Z M37.195,47.834 C37.623,46.802 37.056,45.582 36.021,45.212 C34.929,44.787 33.79,45.322 33.344,46.427 C32.938,47.465 33.493,48.637 34.565,49.05 C35.642,49.406 36.796,48.892 37.195,47.834 Z M45.44,25.823 C45.848,24.802 45.3,23.576 44.256,23.208 C43.168,22.789 42.034,23.328 41.578,24.422 C41.168,25.464 41.735,26.634 42.794,27.047 C43.875,27.395 45.032,26.897 45.44,25.823 Z M49.122,38.668 C48.938,39.509 49.355,40.296 50.168,40.512 C50.975,40.734 51.806,40.222 52.018,39.452 C52.229,38.658 51.744,37.853 50.944,37.647 C50.15,37.414 49.333,37.899 49.122,38.668 Z M46.089,42.836 C45.243,43.716 45.243,45.132 46.105,46.014 C46.993,46.861 48.387,46.847 49.189,46.006 C50.104,45.146 50.122,43.702 49.245,42.866 C48.356,41.983 46.976,41.983 46.089,42.836 Z M41.432,45.279 C40.231,45.579 39.398,46.817 39.695,48.028 C39.957,49.292 41.228,50.087 42.465,49.812 C43.728,49.553 44.492,48.281 44.24,47.04 C43.937,45.772 42.707,45.029 41.432,45.279 Z M26.785,32.704 C26.557,33.53 27.025,34.318 27.856,34.569 C28.62,34.769 29.446,34.292 29.653,33.505 C29.885,32.704 29.375,31.898 28.602,31.682 C27.818,31.469 27.003,31.925 26.785,32.704 Z M29.556,26.182 C28.722,27.068 28.68,28.457 29.544,29.312 C30.411,30.189 31.803,30.197 32.713,29.312 C33.558,28.457 33.558,27.068 32.684,26.182 C31.818,25.322 30.418,25.333 29.556,26.182 Z M36.342,22.389 C35.057,22.651 34.275,23.906 34.523,25.125 C34.843,26.374 36.057,27.174 37.331,26.88 C38.565,26.607 39.356,25.374 39.083,24.127 C38.795,22.894 37.55,22.092 36.342,22.389 Z M51.168,50.25 C51.837,50.897 52.829,50.919 53.463,50.244 C54.103,49.651 54.139,48.654 53.472,48.018 C52.859,47.355 51.802,47.365 51.196,47.977 C50.569,48.612 50.561,49.651 51.168,50.25 Z M25.144,24.07 C25.791,24.707 26.822,24.737 27.449,24.06 C28.058,23.439 28.081,22.412 27.442,21.788 C26.802,21.163 25.791,21.173 25.155,21.784 C24.54,22.412 24.54,23.439 25.144,24.07 Z M55.738,44.623 C56.572,44.982 57.516,44.573 57.866,43.759 C58.205,42.943 57.815,41.985 57.001,41.645 C56.168,41.279 55.233,41.675 54.914,42.509 C54.535,43.349 54.963,44.306 55.738,44.623 Z M58.034,38.291 C59.115,38.291 59.988,37.445 59.992,36.374 C60.023,35.318 59.175,34.419 58.1,34.405 C57.05,34.391 56.139,35.217 56.113,36.301 C56.124,37.362 56.979,38.246 58.034,38.291 Z M58.003,31.435 C59.293,30.95 59.909,29.498 59.38,28.2 C58.896,26.946 57.474,26.275 56.216,26.778 C54.897,27.295 54.252,28.724 54.757,30.006 C55.272,31.313 56.712,31.933 58.003,31.435 Z M21.62,30.401 C22.468,30.719 23.403,30.335 23.752,29.512 C24.082,28.695 23.703,27.747 22.89,27.387 C22.063,27.038 21.088,27.452 20.77,28.274 C20.43,29.087 20.815,30.036 21.62,30.401 Z M20.537,37.639 C21.579,37.645 22.467,36.788 22.49,35.717 C22.509,34.67 21.623,33.786 20.611,33.768 C19.523,33.746 18.641,34.577 18.618,35.65 C18.598,36.738 19.465,37.617 20.537,37.639 Z M22.441,45.255 C23.719,44.765 24.384,43.334 23.856,41.999 C23.382,40.716 21.918,40.077 20.643,40.609 C19.354,41.106 18.729,42.55 19.221,43.821 C19.731,45.098 21.146,45.757 22.441,45.255 Z M45.677,51.506 C44.802,51.864 44.341,52.86 44.731,53.774 C45.097,54.67 46.134,55.112 47.016,54.758 C47.908,54.376 48.356,53.376 47.951,52.452 C47.609,51.548 46.566,51.121 45.677,51.506 Z M39.254,52.416 C37.971,52.394 36.918,53.467 36.89,54.763 C36.918,56.098 37.971,57.112 39.236,57.145 C40.537,57.117 41.594,56.098 41.623,54.793 C41.643,53.509 40.579,52.45 39.254,52.416 Z M33.195,51.202 C31.821,50.624 30.265,51.326 29.693,52.706 C29.164,54.073 29.844,55.648 31.207,56.174 C32.547,56.718 34.121,56.105 34.668,54.724 C35.224,53.337 34.575,51.783 33.195,51.202 Z M27.877,47.366 C26.739,46.191 24.846,46.192 23.7,47.339 C22.508,48.521 22.495,50.388 23.649,51.553 C24.835,52.714 26.71,52.722 27.877,51.584 C29.047,50.417 29.047,48.537 27.877,47.366 Z M31.626,17.3 C30.726,17.66 30.306,18.687 30.658,19.567 C31.059,20.48 32.072,20.905 32.971,20.559 C33.875,20.167 34.276,19.121 33.902,18.248 C33.545,17.333 32.51,16.928 31.626,17.3 Z M39.399,14.896 C38.099,14.891 37.022,15.956 37.022,17.272 C37.044,18.502 38.067,19.585 39.39,19.59 C40.66,19.614 41.748,18.544 41.722,17.248 C41.748,16 40.684,14.913 39.399,14.896 Z M47.464,15.867 C46.11,15.313 44.544,15.99 43.972,17.326 C43.429,18.674 44.103,20.297 45.444,20.833 C46.848,21.384 48.393,20.715 48.936,19.34 C49.501,17.968 48.83,16.431 47.464,15.867 Z M54.953,20.496 C53.768,19.328 51.889,19.304 50.724,20.511 C49.571,21.619 49.571,23.509 50.724,24.664 C51.889,25.836 53.768,25.853 54.936,24.693 C56.113,23.509 56.141,21.658 54.953,20.496 Z M55.268,56.883 C55.784,57.487 56.682,57.554 57.273,57.049 C57.872,56.553 57.947,55.649 57.429,55.061 C56.932,54.485 56.03,54.419 55.448,54.904 C54.852,55.414 54.779,56.306 55.268,56.883 Z M59.574,53.012 C60.298,53.546 61.327,53.401 61.858,52.665 C62.402,51.939 62.24,50.924 61.531,50.384 C60.784,49.846 59.758,49.99 59.237,50.72 C58.697,51.448 58.854,52.469 59.574,53.012 Z M63.32,47.721 C64.311,48.134 65.448,47.645 65.827,46.643 C66.224,45.651 65.765,44.532 64.756,44.13 C63.773,43.735 62.647,44.199 62.246,45.209 C61.862,46.197 62.339,47.323 63.32,47.721 Z M65.858,40.831 C66.97,40.964 67.989,40.137 68.107,39.029 C68.233,37.892 67.407,36.897 66.296,36.776 C65.158,36.667 64.152,37.478 64.036,38.586 C63.915,39.7 64.736,40.729 65.858,40.831 Z M66.371,33.679 C67.73,33.451 68.643,32.131 68.379,30.77 C68.157,29.418 66.841,28.505 65.47,28.755 C64.112,29.017 63.203,30.301 63.456,31.67 C63.721,33.027 65.004,33.944 66.371,33.679 Z M21.273,16.935 C21.808,17.52 22.684,17.603 23.267,17.105 C23.867,16.578 23.936,15.693 23.444,15.108 C22.938,14.532 22.028,14.451 21.448,14.954 C20.854,15.476 20.787,16.35 21.273,16.935 Z M17.199,21.626 C17.928,22.159 18.949,22.014 19.481,21.268 C20.028,20.556 19.878,19.533 19.153,19.011 C18.419,18.462 17.398,18.615 16.871,19.339 C16.325,20.067 16.487,21.082 17.199,21.626 Z M13.951,27.873 C14.937,28.256 16.072,27.799 16.48,26.787 C16.874,25.802 16.39,24.669 15.399,24.28 C14.407,23.882 13.291,24.349 12.869,25.358 C12.486,26.332 12.96,27.461 13.951,27.873 Z M12.431,35.228 C13.549,35.366 14.56,34.523 14.706,33.409 C14.795,32.285 13.977,31.284 12.844,31.167 C11.739,31.047 10.73,31.866 10.609,32.978 C10.483,34.098 11.302,35.123 12.431,35.228 Z M13.24,43.25 C14.621,43.009 15.518,41.701 15.261,40.35 C15.015,38.986 13.725,38.056 12.348,38.329 C10.985,38.58 10.084,39.869 10.329,41.238 C10.578,42.581 11.87,43.511 13.24,43.25 Z M51.344,58.01 C50.761,58.322 50.555,59.074 50.87,59.654 C51.187,60.239 51.92,60.449 52.511,60.137 C53.09,59.824 53.325,59.088 52.997,58.504 C52.682,57.91 51.942,57.687 51.344,58.01 Z M46.516,59.778 C45.772,60.012 45.358,60.793 45.57,61.521 C45.803,62.277 46.579,62.693 47.332,62.483 C48.065,62.25 48.506,61.464 48.273,60.71 C48.048,59.982 47.263,59.566 46.516,59.778 Z M40.933,60.684 C40.026,60.728 39.353,61.517 39.414,62.414 C39.486,63.318 40.25,63.999 41.152,63.933 C42.047,63.88 42.729,63.103 42.667,62.198 C42.634,61.301 41.832,60.63 40.933,60.684 Z M34.712,60.052 C33.56,59.832 32.458,60.574 32.226,61.712 C31.997,62.88 32.749,63.977 33.892,64.214 C35.064,64.44 36.163,63.688 36.389,62.525 C36.608,61.378 35.849,60.263 34.712,60.052 Z M28.348,57.727 C27.116,57.121 25.613,57.619 24.984,58.852 C24.381,60.081 24.864,61.561 26.081,62.22 C27.322,62.83 28.822,62.329 29.466,61.082 C30.083,59.869 29.578,58.355 28.348,57.727 Z M22.961,53.557 C21.765,52.454 19.906,52.515 18.811,53.692 C17.695,54.885 17.766,56.751 18.943,57.847 C20.129,58.959 21.999,58.904 23.102,57.726 C24.212,56.513 24.159,54.662 22.961,53.557 Z M18.542,47.324 C17.691,45.786 15.768,45.213 14.219,46.055 C12.682,46.902 12.125,48.827 12.969,50.369 C13.802,51.9 15.725,52.492 17.276,51.658 C18.816,50.806 19.381,48.871 18.542,47.324 Z M26.211,11.863 C25.617,12.171 25.4,12.922 25.721,13.506 C26.039,14.083 26.774,14.322 27.368,13.99 C27.948,13.668 28.172,12.924 27.86,12.341 C27.537,11.751 26.781,11.541 26.211,11.863 Z M31.391,9.535 C30.653,9.748 30.245,10.536 30.458,11.286 C30.692,12.028 31.466,12.455 32.202,12.23 C32.957,12.008 33.367,11.208 33.139,10.47 C32.928,9.727 32.151,9.309 31.391,9.535 Z M37.554,8.064 C36.668,8.127 35.99,8.895 36.036,9.792 C36.101,10.686 36.874,11.38 37.778,11.326 C38.684,11.272 39.358,10.478 39.303,9.576 C39.232,8.676 38.463,8.009 37.554,8.064 Z M44.826,7.811 C43.65,7.577 42.553,8.335 42.331,9.483 C42.108,10.626 42.87,11.746 44.005,11.958 C45.168,12.185 46.269,11.425 46.5,10.292 C46.717,9.126 45.955,8.037 44.826,7.811 Z M52.397,9.647 C51.176,9.034 49.672,9.532 49.049,10.809 C48.447,12.023 48.947,13.539 50.186,14.15 C51.429,14.751 52.94,14.266 53.541,13.001 C54.15,11.748 53.645,10.272 52.397,9.647 Z M59.799,14.139 C58.603,13.02 56.742,13.079 55.64,14.268 C54.548,15.463 54.59,17.327 55.786,18.439 C56.967,19.536 58.842,19.481 59.946,18.298 C61.049,17.105 60.996,15.237 59.799,14.139 Z M65.759,21.632 C64.917,20.099 62.989,19.518 61.436,20.349 C59.894,21.202 59.322,23.133 60.16,24.665 C61.002,26.213 62.93,26.792 64.483,25.967 C66.029,25.114 66.599,23.177 65.759,21.632 Z M44.593,69.998 C44.797,71.008 45.786,71.65 46.778,71.431 C47.78,71.225 48.414,70.236 48.205,69.25 C48.004,68.258 47.011,67.624 46.022,67.824 C45.034,68.035 44.387,69.007 44.593,69.998 Z M51.956,68.22 C52.451,69.306 53.738,69.767 54.803,69.277 C55.881,68.769 56.341,67.494 55.845,66.416 C55.335,65.342 54.077,64.872 52.996,65.381 C51.932,65.884 51.473,67.156 51.956,68.22 Z M59.497,64.561 C60.427,65.698 62.094,65.862 63.214,64.911 C64.336,63.984 64.504,62.322 63.558,61.193 C62.647,60.077 60.985,59.907 59.856,60.855 C58.743,61.765 58.572,63.431 59.497,64.561 Z M66.598,58.476 C67.972,59.441 69.898,59.086 70.852,57.708 C71.814,56.304 71.455,54.406 70.077,53.451 C68.661,52.485 66.773,52.825 65.811,54.226 C64.87,55.605 65.2,57.537 66.598,58.476 Z M71.784,50.57 C73.656,51.201 75.703,50.159 76.335,48.267 C76.957,46.401 75.936,44.354 74.037,43.717 C72.142,43.099 70.122,44.124 69.497,46.009 C68.869,47.904 69.891,49.934 71.784,50.57 Z M30.515,2.738 C30.728,3.756 31.709,4.386 32.703,4.174 C33.702,3.964 34.34,2.998 34.131,1.993 C33.921,1.002 32.931,0.359 31.951,0.571 C30.941,0.779 30.309,1.744 30.515,2.738 Z M22.873,5.591 C23.372,6.663 24.657,7.13 25.723,6.618 C26.8,6.135 27.258,4.859 26.766,3.789 C26.261,2.721 24.982,2.26 23.923,2.739 C22.847,3.246 22.39,4.511 22.873,5.591 Z M15.151,10.797 C16.08,11.924 17.74,12.091 18.874,11.14 C19.997,10.224 20.157,8.554 19.23,7.44 C18.298,6.308 16.647,6.14 15.51,7.086 C14.384,8.006 14.216,9.67 15.151,10.797 Z M8.647,18.558 C10.037,19.528 11.939,19.166 12.922,17.777 C13.862,16.382 13.517,14.489 12.123,13.518 C10.735,12.559 8.829,12.909 7.873,14.292 C6.904,15.682 7.261,17.599 8.647,18.558 Z M4.686,28.289 C6.567,28.919 8.604,27.883 9.232,26.002 C9.855,24.122 8.838,22.085 6.936,21.453 C5.049,20.831 3.02,21.845 2.388,23.74 C1.776,25.612 2.784,27.664 4.686,28.289 Z M39.369,68.824 C38.489,68.824 37.784,69.546 37.784,70.411 C37.784,71.289 38.489,71.988 39.369,72 C40.241,71.988 40.953,71.289 40.953,70.411 C40.953,69.546 40.241,68.824 39.369,68.824 Z M32.709,67.824 C31.712,67.625 30.723,68.267 30.524,69.256 C30.313,70.248 30.958,71.235 31.951,71.437 C32.937,71.65 33.927,71.013 34.131,70.008 C34.34,69.011 33.693,68.039 32.709,67.824 Z M25.712,65.38 C24.646,64.868 23.378,65.336 22.88,66.409 C22.39,67.489 22.847,68.758 23.923,69.256 C24.982,69.751 26.261,69.3 26.766,68.208 C27.258,67.155 26.782,65.869 25.712,65.38 Z M18.872,60.855 C17.739,59.915 16.08,60.091 15.151,61.203 C14.211,62.329 14.378,63.984 15.501,64.912 C16.634,65.862 18.298,65.698 19.226,64.562 C20.155,63.442 19.987,61.765 18.872,60.855 Z M12.911,54.227 C11.95,52.847 10.044,52.494 8.655,53.46 C7.267,54.406 6.915,56.316 7.857,57.717 C8.823,59.09 10.735,59.436 12.132,58.481 C13.517,57.529 13.879,55.617 12.911,54.227 Z M9.238,46.001 C8.599,44.115 6.565,43.091 4.694,43.712 C2.784,44.335 1.776,46.388 2.388,48.262 C3.01,50.158 5.049,51.183 6.941,50.559 C8.833,49.926 9.857,47.896 9.238,46.001 Z M8.318,35.995 C8.318,33.707 6.462,31.835 4.155,31.835 C1.862,31.835 0,33.707 0,35.995 C0,38.305 1.862,40.177 4.155,40.177 C6.462,40.177 8.318,38.305 8.318,35.995 Z M39.35,-0.001 C38.475,-0.006 37.772,0.707 37.772,1.58 C37.772,2.455 38.475,3.169 39.35,3.169 C40.228,3.169 40.934,2.455 40.934,1.58 C40.934,0.707 40.228,-0.006 39.35,-0.001 Z M46.78,0.576 C45.787,0.36 44.817,0.992 44.6,2.002 C44.396,2.999 45.034,3.97 46.022,4.174 C47.015,4.395 48.005,3.757 48.209,2.743 C48.415,1.748 47.777,0.779 46.78,0.576 Z M54.797,2.739 C53.724,2.26 52.463,2.721 51.956,3.78 C51.473,4.841 51.932,6.126 52.996,6.618 C54.074,7.13 55.353,6.659 55.845,5.584 C56.341,4.504 55.878,3.237 54.797,2.739 Z M63.207,7.09 C62.083,6.148 60.426,6.319 59.493,7.447 C58.566,8.561 58.721,10.232 59.849,11.156 C60.975,12.091 62.646,11.929 63.557,10.804 C64.503,9.671 64.328,8.016 63.207,7.09 Z M70.844,14.292 C69.887,12.913 67.981,12.554 66.587,13.525 C65.205,14.476 64.855,16.394 65.805,17.771 C66.769,19.176 68.672,19.536 70.071,18.559 C71.464,17.587 71.804,15.706 70.844,14.292 Z M76.335,23.739 C75.697,21.839 73.656,20.818 71.784,21.444 C69.896,22.075 68.868,24.104 69.492,25.995 C70.128,27.873 72.162,28.9 74.037,28.283 C75.93,27.656 76.951,25.604 76.335,23.739 Z M78.725,35.995 C78.725,33.707 76.859,31.835 74.555,31.835 C72.257,31.835 70.392,33.707 70.392,35.995 C70.392,38.305 72.257,40.177 74.555,40.177 C76.859,40.177 78.725,38.305 78.725,35.995 L78.725,35.995 Z" id="tr_h_lg_rgb_wh" fill="#FFFFFE"></path>
    </g>
</svg>